<?xml version="1.0" encoding="utf-8"?>
<!-- Generator: Adobe Illustrator 22.0.0, SVG Export Plug-In . SVG Version: 6.00 Build 0)  -->
<svg version="1.1" id="Capa_1" xmlns="http://www.w3.org/2000/svg" xmlns:xlink="http://www.w3.org/1999/xlink" x="0px" y="0px"
	 viewBox="0 0 50 50" style="enable-background:new 0 0 50 50;" xml:space="preserve">
<style type="text/css">
	.st0{fill:#C6C6C4;}
</style>
<g>
	<path class="st0" d="M25,49C11.8,49,1,38.2,1,25S11.8,1,25,1s24,10.8,24,24S38.2,49,25,49z M25,3C12.9,3,3,12.9,3,25s9.9,22,22,22
		s22-9.9,22-22S37.1,3,25,3z"/>
</g>
<g>
	<circle class="st0" cx="17.5" cy="20.5" r="1.8"/>
	<circle class="st0" cx="32.5" cy="20.5" r="1.8"/>
</g>
<g>
	<g>
		<path class="st0" d="M25,37.4c-4.7,0-9-2.7-10.9-7c-0.2-0.5,0-1.1,0.5-1.3c0.5-0.2,1.1,0,1.3,0.5c1.6,3.5,5.2,5.8,9.1,5.8
			s7.5-2.3,9.1-5.8c0.2-0.5,0.8-0.7,1.3-0.5c0.5,0.2,0.7,0.8,0.5,1.3C34,34.7,29.7,37.4,25,37.4z"/>
	</g>
</g>
</svg>
